<svg version="1.1" xmlns="http://www.w3.org/2000/svg" xmlns:xlink="http://www.w3.org/1999/xlink" width="100%" height="100%" viewBox="0,0,256,256"><g fill="#ffb700" fill-rule="nonzero" stroke="none" stroke-width="1" stroke-linecap="butt" stroke-linejoin="miter" stroke-miterlimit="10" stroke-dasharray="" stroke-dashoffset="0" font-family="none" font-weight="none" font-size="none" text-anchor="none" style="mix-blend-mode: normal"><g transform="translate(0.92978,37.9661) scale(0.14286,0.14286)"><g transform="translate(121.49153,1270.2373) scale(1,-1)" id="g4"><path d="M1511,480c0,-3.33333 -0.33333,-5.66667 -1,-7c-42.66667,-178.66667 -132,-323.5 -268,-434.5c-136,-111 -295.33333,-166.5 -478,-166.5c-97.33333,0 -191.5,18.33333 -282.5,55c-91,36.66667 -172.16667,89 -243.5,157l-129,-129c-12.66667,-12.66667 -27.66667,-19 -45,-19c-17.33333,0 -32.33333,6.33333 -45,19c-12.66667,12.66667 -19,27.66667 -19,45v448c0,17.33333 6.33333,32.33333 19,45c12.66667,12.66667 27.66667,19 45,19h448c17.33333,0 32.33333,-6.33333 45,-19c12.66667,-12.66667 19,-27.66667 19,-45c0,-17.33333 -6.33333,-32.33333 -19,-45l-137,-137c47.33333,-44 101,-78 161,-102c60,-24 122.33333,-36 187,-36c89.33333,0 172.66667,21.66667 250,65c77.33333,43.33333 139.33333,103 186,179c7.33333,11.33333 25,50.33333 53,117c5.33333,15.33333 15.33333,23 30,23h192c8.66667,0 16.16667,-3.16667 22.5,-9.5c6.33333,-6.33333 9.5,-13.83333 9.5,-22.5zM1536,1280v-448c0,-17.33333 -6.33333,-32.33333 -19,-45c-12.66667,-12.66667 -27.66667,-19 -45,-19h-448c-17.33333,0 -32.33333,6.33333 -45,19c-12.66667,12.66667 -19,27.66667 -19,45c0,17.33333 6.33333,32.33333 19,45l138,138c-98.66667,91.33333 -215,137 -349,137c-89.33333,0 -172.66667,-21.66667 -250,-65c-77.33333,-43.33333 -139.33333,-103 -186,-179c-7.33333,-11.33333 -25,-50.33333 -53,-117c-5.33333,-15.33333 -15.33333,-23 -30,-23h-199c-8.66667,0 -16.16667,3.16667 -22.5,9.5c-6.33333,6.33333 -9.5,13.83333 -9.5,22.5v7c43.33333,178.66667 133.33333,323.5 270,434.5c136.66667,111 296.66667,166.5 480,166.5c97.33333,0 192,-18.5 284,-55.5c92,-37 173.66667,-89.16667 245,-156.5l130,129c12.66667,12.66667 27.66667,19 45,19c17.33333,0 32.33333,-6.33333 45,-19c12.66667,-12.66667 19,-27.66667 19,-45z" id="path6"></path></g></g></g></svg>